<svg xmlns="http://www.w3.org/2000/svg" xmlns:xlink="http://www.w3.org/1999/xlink" width="1007" height="563" viewBox="0 0 1007 563">
  <defs>
    <filter id="Clothes_Back" x="722.911" y="212.519" width="110.732" height="28.264" filterUnits="userSpaceOnUse">
      <feOffset dx="-4" dy="1" input="SourceAlpha"/>
      <feGaussianBlur stdDeviation="1.5" result="blur"/>
      <feFlood flood-opacity="0.486"/>
      <feComposite operator="in" in2="blur"/>
      <feComposite in="SourceGraphic"/>
    </filter>
    <clipPath id="clip-Web_1920_1">
      <rect width="1007" height="563"/>
    </clipPath>
  </defs>
  <g id="Web_1920_1" data-name="Web 1920 – 1" clip-path="url(#clip-Web_1920_1)">
    <g id="Scene_Home" data-name="Scene/Home" transform="translate(-76 -159)">
      <rect id="Scene_Home_background" data-name="Scene/Home background" width="1148" height="792" fill="rgba(0,0,0,0)"/>
      <path id="Background_Shape" data-name="Background Shape" d="M1.259,193.2c25.3-97.8,281.27-42.087,449.083-72.323S816.692-50.181,948.087,18.8,939.68,254.52,638.315,292.148-24.038,291,1.259,193.2Z" transform="translate(82.222 412.306)" fill="#b4d5d8"/>
      <path id="Fill_79" data-name="Fill 79" d="M26.589.007C19.758.106,2.891,1.971.383,8.037c-1.9,4.6,3.751,3.594,6.781,1.918A33.852,33.852,0,0,1,19.939,5.644c19.351-2.628,37.944,6.8,57.109,7.987,7.26.451,16.021.746,22.952-1.02,4.936-1.257,5.581-4-.053-4.415-4.786-.355-10.083.763-14.99.731C64.653,8.8,46.6-.28,26.589.007" transform="translate(845.487 111.812)" fill="#c1dee2" opacity="0.5"/>
      <g id="Profile" transform="translate(538.621 404.076)" opacity="0.5">
        <path id="face" d="M22.211,38.531h0a23.231,23.231,0,0,1-6.073-.825,24.873,24.873,0,0,1-5.663-2.318,23.507,23.507,0,0,1-4.828-3.575,19.814,19.814,0,0,1-3.569-4.6A15.8,15.8,0,0,1,0,19.161a17.618,17.618,0,0,1,2.831-9C1.7,9.931,1.085,9.52,1,8.939.769,7.356,4.475,5.007,5.4,4.511l.333-.178c3.2-1.71,6.5-3.477,10.027-4A30.08,30.08,0,0,1,20.218,0,27.961,27.961,0,0,1,31.839,2.412a20.314,20.314,0,0,1,4.927,3.163,17.058,17.058,0,0,1,3.708,4.6A16.052,16.052,0,0,1,42.4,16.651a18.8,18.8,0,0,1-.688,6.654,21.853,21.853,0,0,1-2.846,6.152,21.5,21.5,0,0,1-4.546,4.97A19.274,19.274,0,0,1,22.211,38.531Zm-2.4-33.905A16.7,16.7,0,0,0,7.346,10.063,13.164,13.164,0,0,0,4.661,14.8a13.377,13.377,0,0,0-.467,5.827,16.029,16.029,0,0,0,6.019,10.225,18.826,18.826,0,0,0,5.294,3.027,16.943,16.943,0,0,0,5.921,1.1c.355,0,.711-.012,1.061-.037a16.82,16.82,0,0,0,10.273-4.583A16.886,16.886,0,0,0,38,20.375a11.771,11.771,0,0,0-2.671-9.619,16.659,16.659,0,0,0-6.758-4.529,25.255,25.255,0,0,0-8.382-1.6C20.062,4.627,19.937,4.625,19.814,4.625Z" transform="translate(22.992 0)" fill="#89c5cc"/>
        <path id="Fill_231" data-name="Fill 231" d="M0,2.658C0,6.2,5.5,6.2,5.5,2.658S0-.886,0,2.658" transform="translate(36.604 13.82)" fill="#89c5cc"/>
        <path id="Fill_233" data-name="Fill 233" d="M0,2.881c0,3.842,5.963,3.842,5.963,0S0-.96,0,2.881" transform="translate(46.802 14.164)" fill="#89c5cc"/>
        <path id="Fill_235" data-name="Fill 235" d="M.05,1C-.753,3.91,8.4,5.4,8.7,2.031,8.847.42.608-1.038.05,1" transform="translate(39.87 23.648)" fill="#89c5cc"/>
        <path id="Fill_237" data-name="Fill 237" d="M1.04,6.014c10.529-1.263,21.386-.68,31.966-.377,2.648.077,5.3.151,7.944.195,1.683.028,5.319.836,6.789.048,6.017-3.227-5.786-4.787-7.458-4.936A364.534,364.534,0,0,0,2.96.178C-.161.3-.836,6.239,1.04,6.014" transform="translate(65.704 16.828)" fill="#89c5cc"/>
        <path id="Fill_241" data-name="Fill 241" d="M53.776.025c-4.055.347-7.8,2.251-11.9,2.275-3.434.019-6.816-1.007-10.27-.855-4.051.177-6.28,2.8-9.828,3.673-2.825.7-4.6-1.465-7.09-2.422-3.137-1.208-5.455-.584-8.144,1.243C4.573,5.282-.035,8.295,0,11.01c.106,8.226,9.7-3.137,11.637-3.275,2.571-.183,5.442,2.747,8.177,2.914,3.616.221,5.935-2.11,9.264-2.959,3.367-.859,7.007.193,10.383.52,3.852.372,7.222-.486,10.948-1.405a22.117,22.117,0,0,1,10.357-.1c2.476.505,8.646,3.441,9.729-.334C71.971,1.234,56.611-.216,53.776.025" transform="translate(8.924 43.305)" fill="#89c5cc"/>
        <path id="Fill_243" data-name="Fill 243" d="M41.369.011C33.061.817,24.7,1.524,16.356,1.751,12.741,1.849-1.155.3.077,4.893,1.133,8.832,20.044,6.352,23.9,6.052c4.252-.33,8.5-.792,12.729-1.327,1.5-.19,5.121.006,6.179-1.251,1.009-1.2.511-3.657-1.435-3.462" transform="translate(22.566 59.008)" fill="#89c5cc"/>
        <path id="have_a_nice_day_:_" data-name="have a nice day :)" d="M9.23,18.8a8.521,8.521,0,0,1-6.651-3.325A11.74,11.74,0,0,1,0,8.395,8.27,8.27,0,0,1,1.916,2.686,8.682,8.682,0,0,1,8.373,0l.09,0A1.423,1.423,0,0,1,9.635.545,1.181,1.181,0,0,0,10.406,1h.024a1.5,1.5,0,0,0,.634-.321l.09-.061a1.8,1.8,0,0,1,.873-.382h.038c2.709.174,4.443.684,5.852,2.881A7.824,7.824,0,0,1,19.083,7.05a12.093,12.093,0,0,1-.661,4.358c-1.107,3.269-3.364,5.869-5.891,6.784A9.7,9.7,0,0,1,9.23,18.8ZM11.066,4.451a1.857,1.857,0,0,0-.983.293l-.006,0a3.306,3.306,0,0,1-1.7.456c-2.19.069-3.427,1.221-3.4,3.161A6.154,6.154,0,0,0,6.409,12a4.435,4.435,0,0,0,3.306,1.8,3.935,3.935,0,0,0,2.8-1.322,7.842,7.842,0,0,0,1.742-3.41c.223-.908.467-2.593-.4-3.668-.5-.621-.713-.638-1.092-.669h-.007a3.417,3.417,0,0,1-.69-.115A3.837,3.837,0,0,0,11.066,4.451Z" transform="translate(0 74.71)" fill="#89c5cc"/>
        <path id="espero" d="M7.728,17.015h0l-.17,0A7.328,7.328,0,0,1,2.1,14.449,8.914,8.914,0,0,1,.066,7.607C.6,3.224,3.339.83,8.672.075A7.568,7.568,0,0,1,9.714,0a5.529,5.529,0,0,1,4.169,1.772,9.011,9.011,0,0,1,1.977,6.736,10.27,10.27,0,0,1-2.276,5.849A7.449,7.449,0,0,1,7.728,17.015ZM6.53,6.1h0l.01,0a2.792,2.792,0,0,0-1,3.262,2.65,2.65,0,0,0,2.434,2.1,2.638,2.638,0,0,0,.936-.182,4.094,4.094,0,0,0,1.975-2.695,1.849,1.849,0,0,0-.319-1.711c.034.035.045.063.037.083s-.067.043-.164.043A12.732,12.732,0,0,1,8.2,6.555c-.671-.172-1.283-.343-1.544-.416L6.53,6.1Z" transform="translate(36.276 74.592)" fill="#89c5cc"/>
        <path id="hola" d="M6.95,20.118h0a6.591,6.591,0,0,1-4.858-1.981A7.683,7.683,0,0,1,.047,13.585,8.165,8.165,0,0,1,1.308,8.241,7.994,7.994,0,0,1,6.482,4.874,2.5,2.5,0,0,1,5.467,1.507,2.5,2.5,0,0,1,7.55,0c2.962,0,6.466,6.994,6.77,8.769a13.28,13.28,0,0,1-.451,6.83,7.039,7.039,0,0,1-1.788,2.712,6.673,6.673,0,0,1-3.145,1.583A9.348,9.348,0,0,1,6.95,20.118ZM9.125,10.3h0c-3.113.274-3.394,1.553-3.371,2.089a1.909,1.909,0,0,0,1.783,1.723,1.251,1.251,0,0,0,.935-.42c.385-.415.81-1.341.653-3.393Z" transform="translate(84.912 70.601)" fill="#89c5cc"/>
      </g>
      <path id="Fill_251" data-name="Fill 251" d="M15.546.333C10.9.954-.1,4.809,0,8.95c.149,6.463,9.491-.6,11.569-1.546,11.163-5.1,25.622,1.509,37.245,2.915,5.329.645,15.754,1.836,20.462-.846C77.647,4.705,58.287,5.9,55.821,5.707,42.42,4.668,29.087-1.483,15.546.333" transform="translate(667.081 488.012)" fill="#c1dee2" opacity="0.5"/>
      <g id="List" transform="translate(956.355 450.984)" opacity="0.5">
        <path id="Fill_253" data-name="Fill 253" d="M.038,3.079c0,5.678-.29,11.474.757,17.084.317,1.7.567,4.952,2.359,5.833a2.733,2.733,0,0,0,3.992-1.954c.522-2.147-.623-5.359-.738-7.613-.159-3.078-.17-6.161-.171-9.243,0-2.226.731-5.807-1.9-6.952a3.162,3.162,0,0,0-4.3,2.844" transform="translate(2.428)" fill="#5c99a2"/>
        <path id="Fill_257" data-name="Fill 257" d="M92.91.008C76.569,1.484,59.852.036,43.444.616c-8.6.3-17.193.789-25.794,1.073-3.72.123-7.444.128-11.166.155C4.7,1.856-3.4,2.936,1.614,6.465c2.219,1.563,9.291.3,11.837.273,3.824-.045,7.647-.2,11.468-.354,8.852-.346,17.7-.826,26.556-1.065,8.472-.229,16.949-.279,25.421-.508a107.044,107.044,0,0,0,12.667-.859c.943-.139,4-.249,4.66-1.3.619-.994.184-2.787-1.312-2.643" transform="translate(6.261 25.948)" fill="#5c99a2"/>
        <path id="Fill_259" data-name="Fill 259" d="M9.311,17.6h0a9.094,9.094,0,0,1-6.529-2.608A9.471,9.471,0,0,1,.034,9.169,8.084,8.084,0,0,1,1.62,3.505,9.846,9.846,0,0,1,7.891.038,2.314,2.314,0,0,1,8.3,0,2.869,2.869,0,0,1,9.615.388a3.191,3.191,0,0,0,1.06.368,3.009,3.009,0,0,0,.333.018,6.843,6.843,0,0,0,.986-.1,6.8,6.8,0,0,1,.992-.1,2.813,2.813,0,0,1,.8.109,5.962,5.962,0,0,1,2.8,1.933,9.739,9.739,0,0,1,1.7,2.98,9.093,9.093,0,0,1,.506,3.875,8.77,8.77,0,0,1-3.55,6.3,9.078,9.078,0,0,1-3.569,1.573A11.734,11.734,0,0,1,9.311,17.6ZM11.935,5.918h0C9.8,5.93,6.012,6.383,5.317,8c-.311.726.023,1.616.994,2.648a4.146,4.146,0,0,0,3.07,1.41A3.9,3.9,0,0,0,12.934,9.8a3.5,3.5,0,0,0-1-3.878Z" transform="translate(13.668 5.558)" fill="#5c99a2"/>
        <path id="Fill_261" data-name="Fill 261" d="M32.446.12C24.525.145,16.6.481,8.683.631,6.253.677.01-.41,0,3.42-.011,7.512,6.944,6,9.259,5.945c7.856-.188,15.732-.532,23.556-1.28,1.976-.189,8.818.137,8.812-2.551-.007-2.848-7.584-2-9.18-2" transform="translate(39.384 10.404)" fill="#5c99a2"/>
        <path id="Fill_263" data-name="Fill 263" d="M87.7.019C68.109.545,48.548.728,28.974,1.731c-7.322.375-14.633.654-21.966.654-1.412,0-4.256-.547-5.585.342-3.607,2.412.5,4.483,2.851,4.613,16.081.893,32.394-1.329,48.465-1.83,9.408-.293,18.819-.38,28.222-.859,2.565-.131,5.131-.282,7.692-.481,1.473-.114,5.368.2,6.558-.663,5.2-3.762-5.76-3.535-7.512-3.488" transform="translate(3.049 37.213)" fill="#5c99a2"/>
        <path id="Fill_265" data-name="Fill 265" d="M.111,3.4A89.992,89.992,0,0,0,.572,18.517C.833,20.5.953,22.76,3.283,23.266c2.116.458,3.189-1.142,3.627-2.916,1.07-4.333.128-10.569.116-15.07C7.02,3.054,7.018.563,4.268.06A3.5,3.5,0,0,0,.111,3.4" transform="translate(0.755 43.414)" fill="#5c99a2"/>
        <path id="Fill_267" data-name="Fill 267" d="M111.513.007Q63.946,2.514,16.4,4.479c-2.475.1-21.7-.1-14.98,6.6,2.076,2.071,7.425.668,10.11.537,4.035-.2,8.071-.35,12.106-.555,16-.814,32.035-1.034,48.02-1.948Q84.848,8.358,97.977,6.8c4.162-.487,9.329-.437,13.227-2.068,2.005-.839,4.17-4.928.309-4.723" transform="translate(0 59.048)" fill="#5c99a2"/>
        <path id="Fill_269" data-name="Fill 269" d="M1.47,1.355C-.942,3.756.3,8.495.48,11.463c.25,4.085.554,8.173,1.064,12.236.332,2.639.156,6.747,1.564,9.026a3.9,3.9,0,0,0,6.77-.2c1.319-2.281.651-7.081.617-9.608-.047-3.5-.265-7-.472-10.485-.174-2.916.487-7.588-1.117-10.084A4.792,4.792,0,0,0,1.47,1.355" transform="translate(91.81 31.936)" fill="#5c99a2"/>
        <path id="Fill_271" data-name="Fill 271" d="M8.7,14.539h0a10.3,10.3,0,0,1-1.577-.117A8.874,8.874,0,0,1,.743,9.981,6.4,6.4,0,0,1,0,7.182,6.474,6.474,0,0,1,.7,4.124,6.462,6.462,0,0,1,4.923.9a26.293,26.293,0,0,1,5.6-.845L11,.022c.181-.015.366-.022.549-.022A7.607,7.607,0,0,1,17,2.407a6.5,6.5,0,0,1,1.807,4.908,6.969,6.969,0,0,1-3.532,5.379A12.693,12.693,0,0,1,8.7,14.539ZM6.221,5.84A.592.592,0,0,0,5.832,6,1.5,1.5,0,0,0,5.8,8.041,3.151,3.151,0,0,0,8.6,9.5c2.278,0,4.676-1.717,4.8-3,.089-.9-.862-1.28-1.676-1.444l-.089,0a14.524,14.524,0,0,0-4.222,1.1.514.514,0,0,1-.205.043,1.058,1.058,0,0,1-.5-.181A1.046,1.046,0,0,0,6.221,5.84Z" transform="translate(14.704 46.164)" fill="#5c99a2"/>
        <path id="Fill_273" data-name="Fill 273" d="M16.073.276C12.358.336,5.057-.763,1.821,1.048-1.381,2.839.047,6.03,2.968,6.793c1.931.5,5.087-.31,7.1-.392,2.644-.108,5.291-.131,7.937-.167,4.45-.06,8.9-.009,13.349-.009,4.546,0,9.169.124,13.707-.21C50.8,5.592,50.645,1.293,45.03.755,35.491-.157,25.642.125,16.073.276" transform="translate(39.588 48.465)" fill="#5c99a2"/>
        <path id="Fill_275" data-name="Fill 275" d="M0,.908c0,2.043,1.812,0,1.8,0,.013,0-1.8-2.043-1.8,0" transform="translate(46.172 95.983)" fill="#5c99a2"/>
        <path id="Fill_277" data-name="Fill 277" d="M0,2.855c.117,5.937.194,11.88.447,17.813.08,1.876-.457,5.539,1.817,6.5,2.531,1.064,3.318-1.589,3.609-3.387.923-5.7.018-12.2-.071-17.964-.03-1.935.389-4.63-1.809-5.594A2.931,2.931,0,0,0,0,2.855" transform="translate(5.176 77.593)" fill="#5c99a2"/>
        <path id="Fill_279" data-name="Fill 279" d="M101.953,21.322h0a2.8,2.8,0,0,1-2.285-1.632c-.857-1.435-.487-3.956-.129-6.394a19.045,19.045,0,0,0,.331-3.873c-.02-.244-.037-.486-.053-.72-.118-1.716-.221-3.2-1.671-3.834a5.238,5.238,0,0,0-2.061-.321c-.85,0-1.754.091-2.628.18-.723.073-1.4.142-1.949.145-4.521.02-9.108.033-13.544.044-13.635.036-27.734.074-41.6.353-8.206.165-14.471.376-20.314.684A55.83,55.83,0,0,0,6.765,7.022a19.713,19.713,0,0,1-3.823.442C1.359,7.464.4,7.148.1,6.524-.176,5.949.117,5.11.973,4.031c1.513-1.907,6.741-2.276,9.864-2.5.571-.04,1.064-.075,1.476-.114C15.7,1.1,19.184.955,22.549.815L24.007.753c8.117-.347,16.38-.474,24.37-.6L51.351.112C56.2.036,61.189,0,66.595,0c4.03,0,8.216.02,12.8.062,5.342.05,10.727.3,16.464.763,2.325.188,4.005.324,5.287,1.036s2.142,2.032,2.841,4.394c1,3.382,2.064,7.731,1.4,11.367a5.4,5.4,0,0,1-1.234,2.507A3.046,3.046,0,0,1,101.953,21.322Z" transform="translate(3.712 75.57)" fill="#5c99a2"/>
        <path id="Fill_281" data-name="Fill 281" d="M85.908,1.714c-19.769,2.3-40.1.943-59.977,1.024-4.833.02-9.67.058-14.5.293-2.55.123-8.6-.58-10.343,1.387C-2.593,8.566,4.041,9.169,6.463,9c4.9-.348,9.805-.507,14.715-.545,17.293-.133,34.683.673,51.962-.18A150.811,150.811,0,0,0,94.561,5.293c1.574-.307,12.349-2.355,6.2-4.81-3.631-1.451-11.043.785-14.857,1.231" transform="translate(5.205 98.511)" fill="#5c99a2"/>
        <path id="Fill_284" data-name="Fill 284" d="M8.944,14.8h0a11.164,11.164,0,0,1-4.017-.732,8.238,8.238,0,0,1-3.255-2.22C-1.655,8.056.58,4.2,3.206.931A2.739,2.739,0,0,1,5.492,0a12.391,12.391,0,0,1,2.7.421C8.669.532,9.12.637,9.5.687c.277.037.54.069.793.1,2.072.252,3.322.4,4.866,2.23a8.046,8.046,0,0,1,1.961,6.353,5.69,5.69,0,0,1-2.795,4.036A10.583,10.583,0,0,1,8.944,14.8ZM9.606,6a2.944,2.944,0,0,0-2.138.588.6.6,0,0,0-.159.486c.073.521.883,1.075,2.242,1.075a6.175,6.175,0,0,0,1.6-.228,4.561,4.561,0,0,0-.961-1.9C10,6.011,9.805,6,9.606,6Z" transform="translate(21.771 84.958)" fill="#5c99a2"/>
        <path id="Fill_286" data-name="Fill 286" d="M0,2.853c0,4.4,18.981,2.5,22.358,2.5,2.829,0,19.932,1.556,18.7-2.968C40.054-1.332,23.207.515,19.619.51,16.517.506,0-1.624,0,2.853" transform="translate(52.38 89.147)" fill="#5c99a2"/>
      </g>
      <g id="Checkmark_" data-name="Checkmark!" transform="translate(569.669 590.081)" opacity="0.5">
        <path id="Fill_292" data-name="Fill 292" d="M28,46.27h0a20.607,20.607,0,0,1-5.823-.857,24.135,24.135,0,0,1-5.727-2.567,28.392,28.392,0,0,1-9.959-10.38A24.148,24.148,0,0,1,3.4,18.5a3.322,3.322,0,0,1-1.705.62A1.406,1.406,0,0,1,.43,18.365a5.5,5.5,0,0,1,.142-4.548A34.525,34.525,0,0,1,4.306,8.667c.242-.294.491-.6.73-.891a20.79,20.79,0,0,1,7.1-5.842A20.633,20.633,0,0,1,21.2,0l.366,0A38.159,38.159,0,0,1,36.068,2.831a26.646,26.646,0,0,1,6.384,3.75,19.278,19.278,0,0,1,7.168,12.464,23.392,23.392,0,0,1-.09,7.408,24.874,24.874,0,0,1-6.546,13.134A22.687,22.687,0,0,1,35.889,44.6,19.454,19.454,0,0,1,28,46.27ZM21.336,5.711a14.454,14.454,0,0,0-5.4.894,9.651,9.651,0,0,0-4.383,3.472,17.526,17.526,0,0,0-2.727,6.056,18.333,18.333,0,0,0-.357,6.638A20.1,20.1,0,0,0,10.59,29.2a26.475,26.475,0,0,0,4.24,5.953,22.988,22.988,0,0,0,5.719,4.462,15.591,15.591,0,0,0,6.557,1.961c.268.015.539.022.806.022A16.061,16.061,0,0,0,40.04,35.662a20.948,20.948,0,0,0,3.613-5.994A19.073,19.073,0,0,0,45,22.932a14.133,14.133,0,0,0-6.059-12.09C35.7,8.474,31.122,6.805,25.686,6.016A36.427,36.427,0,0,0,21.336,5.711Z" transform="translate(0 3.295)" fill="#88b7bd"/>
        <path id="Fill_294" data-name="Fill 294" d="M31.072.669A61.153,61.153,0,0,0,19.313,12.452c-3.263,4.212-5.42,9.471-9.34,13.143-1.979-2.156-4.3-7.979-8.247-5.669C-1.551,21.843.559,25.14,2.155,27.3c4.121,5.589,8.7,7.839,13.982,2.316,4.8-5.015,7.526-11.705,12.014-17.009,1.969-2.327,5.01-4.637,6.578-7.206,1.421-2.329-.336-7.177-3.656-4.737" transform="translate(10.74)" fill="#88b7bd"/>
      </g>
      <g id="Whiteboard_Stuff" data-name="Whiteboard Stuff" transform="translate(839.252 168.458)" opacity="0.5">
        <path id="Wireframy_Stuff" data-name="Wireframy Stuff" d="M2.613,48.086c-2.2-1-2.149-2.1-1.25-2.958-.545-1.2-.455-3.156-.572-4.1A97,97,0,0,1,0,29.224c-.014-7.786,0-15.873,2.155-23.41A1.913,1.913,0,0,1,.777,4.077C.786.134,12.755.231,18.9.329,20.18.35,21.207.37,21.82.354,26.178.241,30.538.225,34.9.249c.952,0,2.017-.06,3.118-.124a24.36,24.36,0,0,1,6.527.184c5.585,1.3,5.232,10.871,5.346,15.5a243.016,243.016,0,0,1-.589,25.32c-.233,2.86-2.314,6.486-4.687,2.543-1.324-2.2-.734-7.335-.736-9.764-.006-8.636,1.347-17.533.052-26.124-.424-2.816-.33-3.007-3.2-2.947-2.272.048-4.546.123-6.818.17-4.629.1-9.259.161-13.886.33-1.757.065-8.071,1.168-13,1.164,0,.04.007.079.008.119.067,3.33-1.565,7.371-1.787,10.874-.535,8.425.1,17.047-.686,25.43-.024.254-.037.525-.052.8.148-.023.293-.039.432-.047,3.67-.233,7.389-.137,11.066-.222,2.344-.054,4.719-.052,7.1-.049a134.215,134.215,0,0,0,15.741-.595c1.521-.2,2.054,1.755,1.371,2.767-.766,1.136-3.218,1.078-4.352,1.246a98.154,98.154,0,0,1-10.043.813c-3.522.156-7.046.273-10.57.371-2.045.057-5.761.648-8.84.648A9.834,9.834,0,0,1,2.613,48.086Z" transform="translate(39.311)" fill="#89c5cc"/>
        <path id="Wireframy_Stuff-2" data-name="Wireframy Stuff" d="M3.025,46.218a1.476,1.476,0,0,1,.318-.925A6.224,6.224,0,0,1,1.924,42.78C.736,38.936.624,34.788.535,30.8.347,22.283.441,13.749.39,5.227-.383,4.19.076,3,1.04,2.175,3.645-.061,11.151.507,14.458.331,19.217.08,23.979.022,28.743,0c5.045-.026,10.1.065,15.141.221,1.871.057,14.88.384,9.066,3.538a6.12,6.12,0,0,1-1.117.457,18.464,18.464,0,0,1,.232,3.625c-.247,4.535-.353,9.079-.554,13.616-.225,5.065-.438,10.129-.613,15.2-.093,2.678.824,8.907-1.3,10.84a2.8,2.8,0,0,1-1.785.9,1.592,1.592,0,0,1-1.278-.743c-3.643,1.058-10.708.866-15.19.674-1.76-.075-3.121-.15-3.722-.149-2.011,0-8.711.682-14.613.682C7.7,48.862,3.041,48.311,3.025,46.218ZM23.192,4.371A141.235,141.235,0,0,0,7.414,5.23c-.286.038-.63.112-1.01.2.795,3.321-.169,8.663-.173,11.74-.01,8.623.308,17.2.5,25.775q.009.422-.019.784c4.121-.88,10.777-.715,15.09-.55,1.745.067,3.107.133,3.761.131,4.229-.016,8.46.042,12.685.212.479.019,1.211,0,2.069-.024a39.081,39.081,0,0,1,5.014.1c-.023-.23-.038-.441-.047-.622-.23-4.561.021-9.17.168-13.731.148-4.6.374-9.191.551-13.787.092-2.364-.506-7.3.141-10.7-3.072-.058-6.293-.429-8.366-.429-2.6,0-5.2-.016-7.8-.016C27.719,4.314,25.456,4.326,23.192,4.371Z" transform="translate(106.777 0.864)" fill="#89c5cc"/>
        <path id="Fill_135" data-name="Fill 135" d="M1.795.484C-1.333,2.311.354,9.619,1.438,12.147c1.781,4.156,5.4,7.408,9.295,9.566,7.882,4.36,19.244,3.2,25.205,10.762.062.078,2.122,2.118,2.591-.524.385-2.168-3.462-5.479-4.952-6.566C29.338,22.295,23.9,21.3,19,19.755,13.77,18.108,8.031,15.073,5.839,9.683c-.776-1.909.7-11.986-4.044-9.2" transform="translate(59.489 47.338)" fill="#c1dee2"/>
        <path id="Fill_137" data-name="Fill 137" d="M34.65.1c-2.866.79-.971,4.734-.975,6.708a11.7,11.7,0,0,1-2.311,7.007c-3.85,4.986-11.389,5.733-17.041,7.162C10.219,22.017.4,24.244.015,29.794c-.429,6.2,8.24-1.345,8.972-1.654,8.1-2.972,18.585-3.546,24.838-10.088a16.078,16.078,0,0,0,4.35-10.025c.137-2.094.16-8.933-3.525-7.927" transform="translate(98.129 51.235)" fill="#c1dee2"/>
        <path id="Fill_139" data-name="Fill 139" d="M23.605,41.39h0a26.164,26.164,0,0,1-8.272-1.41,26.966,26.966,0,0,1-7.587-3.992,20.684,20.684,0,0,1-5.559-6.218A16.4,16.4,0,0,1,0,21.68a16.693,16.693,0,0,1,1.831-7.755A20.623,20.623,0,0,1,6.67,7.851,35.407,35.407,0,0,1,20.833.665,19.9,19.9,0,0,1,25.9,0,19.068,19.068,0,0,1,38.833,5.091,20.643,20.643,0,0,1,45.279,17.9a20.511,20.511,0,0,1-4.695,15.863,21.153,21.153,0,0,1-6.976,5.36,22.981,22.981,0,0,1-9.021,2.241C24.265,41.383,23.934,41.39,23.605,41.39ZM7.242,14.449c-2.43,4.2-2.564,8.409-.387,12.185A17.237,17.237,0,0,0,14.242,33.2,23.383,23.383,0,0,0,24.49,35.658a16.79,16.79,0,0,0,7.074-1.442,13.988,13.988,0,0,0,7.1-7.383,16.572,16.572,0,0,0,.9-9.877,14.049,14.049,0,0,0-4.2-7.546A12.876,12.876,0,0,0,26.647,6.18a2.97,2.97,0,0,1,.675,2.072,1.456,1.456,0,0,1-.748.967,1.717,1.717,0,0,1-.862.271c-.714,0-1.185-.661-1.641-1.3a2.951,2.951,0,0,0-1.356-1.275,1.954,1.954,0,0,0-.529-.068c-1.357,0-3.174,1.128-4.459,2.074a17.763,17.763,0,0,0-2,2.047c-1.851,2.062-4.387,4.886-6.423,4.886A2.38,2.38,0,0,1,7.242,14.449Z" transform="translate(73.56 84.634)" fill="#89c5cc"/>
        <path id="Fill_141" data-name="Fill 141" d="M0,1.994c0,2.632,4.157,2.632,4.157,0C4.157-.609,0-.72,0,1.994" transform="translate(89.289 100.481)" fill="#89c5cc"/>
        <path id="Fill_143" data-name="Fill 143" d="M0,2.442c0,3.224,5.094,3.224,5.094,0C5.094-.746,0-.882,0,2.442" transform="translate(96.603 99.539)" fill="#89c5cc"/>
        <path id="Fill_145" data-name="Fill 145" d="M.882.235C-3.284,2.685,8.63,7.554,9.1,2.579,9.3.432,7.224,1.011,5.839.853,4.513.7,2.14-.5.882.235" transform="translate(90.486 109.259)" fill="#89c5cc"/>
        <path id="Fill_147" data-name="Fill 147" d="M0,2.1C.183,8.357.1,14.612,1.283,20.784c.226,1.172.382,5.424,1.309,6.295C4.87,29.221,4.908,25.115,5,23.542,5.313,17.906,4.721,12.1,4.59,6.448c-.028-1.215.294-3.733-.28-4.91C3.4-.329-.087-.883,0,2.1" transform="translate(89.56 124.782)" fill="#c1dee2"/>
        <path id="Fill_149" data-name="Fill 149" d="M60.917.694c-9.133,10.251-21.71,9.5-34.38,10.393-6.694.474-13.463,1.448-18.85,5.778a22.881,22.881,0,0,0-6.117,7.413c-.634,1.257-3.644,8.51.876,6.789,1.6-.61,3.181-5.407,4.218-6.826A20.144,20.144,0,0,1,14.2,17.86c5.847-2.8,12.829-2.749,19.169-3.1,6.627-.371,13.741-.717,19.832-3.6a30.031,30.031,0,0,0,7.86-5.225c.824-.779,2.591-2.1,2.723-3.293.151-1.361-1.158-3.853-2.863-1.944" transform="translate(24.189 121.111)" fill="#c1dee2"/>
        <path id="Fill_151" data-name="Fill 151" d="M32.074.631c-8.579.287-17.147.634-25.715,1.176C4.6,1.918-1.25,1.564.241,5.161c1.195,2.884,8.334.976,10.7.836,8.927-.53,17.891-.714,26.8-1.517,2-.18,11.047-.108,7.312-3.655C43.27-.863,34.529.547,32.074.631" transform="translate(6.926 152.637)" fill="#89c5cc"/>
        <path id="Fill_153" data-name="Fill 153" d="M1.719.818C-.985,4.37.258,13,.462,17.271c.2,4.138-.606,11.7,4.8,12.344-1.715-.225,1.3.1,1.793.131,1.1.059,2.2.078,3.3.09,2.537.028,5.075-.006,7.611-.057,5.745-.115,11.505-.282,17.243-.6,2.412-.134,15.5-.022,16.014-2.528.662-3.2-11.883-1.39-14.129-1.288-5.469.251-10.947.3-16.421.375-2.713.036-5.429.062-8.142.009-1.12-.022-5.557.438-6.238-.309-.581-.636-.127-6.486-.14-7.381-.04-2.917-.037-5.841.067-8.757.07-1.963,1.131-5.7.266-7.542A2.987,2.987,0,0,0,1.719.818" transform="translate(0 156.587)" fill="#89c5cc"/>
        <path id="Fill_155" data-name="Fill 155" d="M0,3.392c.157,6.5.205,13.126,1.74,19.48.511,2.115,1.226,6.476,3.351,7.57,2.23,1.149,4.155-.491,4.3-2.7.184-2.778-1.3-6.424-1.609-9.274-.356-3.325-.564-6.654-.685-10C7.006,5.96,7.77,2.192,5.374.571A3.454,3.454,0,0,0,0,3.392" transform="translate(45.894 154.18)" fill="#89c5cc"/>
        <path id="Wireframy_Stuff-3" data-name="Wireframy Stuff" d="M3.786,31.676c-2.044-.085-4.227-.753-3.709-3.4.459-2.344,2.818-2.362,4.74-2.558a165.363,165.363,0,0,1,17.411-.778c12.231.042,24.452-.022,36.683-.086a2.649,2.649,0,0,1,1.365.525c-.638-.776-.331-1.925-.45-3.047-.321-3.026-.529-6-1.1-9.025-.459-2.42-.8-6.53-3.047-8.053-1.909-1.3-5.632-1.247-8.564-1.2-.83.014-1.6.027-2.24.011A203.553,203.553,0,0,0,21.279,5.139c-3.568.325-7.181.572-10.71,1.212-1.965.357-7.729,3.242-9.3,1.467C-2.508,3.544,14.1,1.79,16.351,1.557,24.365.731,32.389.11,40.448.033,45.889-.009,55.2-.473,59.2,3.991c2.4,2.681,3.246,7.1,4.184,10.443.72,2.57,2.673,7.2,1.285,9.856-.628,1.2-1.639,2.225-3.173,1.8a2.885,2.885,0,0,1-.859-.376,2.227,2.227,0,0,1,.466,2.428c-.917,2.129-4.293,1.67-6.126,1.823-6.119.51-12.266.851-18.407.9-2.922.025-5.844,0-8.766-.022-3.011-.025-6.023-.05-9.033-.02-4.494.044-9.157.876-13.647.876Q4.454,31.7,3.786,31.676Z" transform="translate(65.092 152.234)" fill="#89c5cc"/>
        <path id="Line" d="M59.849,31.578h0c-1.48,0-3-2.517-4.011-4.182a14.644,14.644,0,0,0-.855-1.322,13.921,13.921,0,0,0-6.845-5.053c-5.21-1.777-10.962-2.448-16.525-3.1-1.894-.221-3.853-.45-5.729-.717-.968-.138-1.955-.263-3-.4-5.029-.636-10.729-1.357-15.027-3.789C5.975,11.956.031,6.509,0,2.875A2.634,2.634,0,0,1,1.421.467,2.976,2.976,0,0,1,2.9,0C4.336,0,5.135,1.565,5.841,2.945c.225.441.438.857.66,1.2a11.742,11.742,0,0,0,7.205,5.208A108.417,108.417,0,0,0,27.652,12.1c1.2.182,2.443.37,3.658.565.995.159,2.028.315,3.027.466,5.509.831,11.2,1.689,16.183,3.888a29.442,29.442,0,0,1,6.22,5.138c1.722,1.772,4.629,5.089,4.757,7.391a1.861,1.861,0,0,1-.96,1.841A1.355,1.355,0,0,1,59.849,31.578Z" transform="translate(111.051 117.118)" fill="#c1dee2"/>
        <path id="Wireframy_Stuff-4" data-name="Wireframy Stuff" d="M6.629,32.629c-2.092-.2-4.339-.941-3.82-3.578C1.354,26.26.684,20.9.554,19.841A97.787,97.787,0,0,1,.03,6.181a2.992,2.992,0,0,1,4.8-2.308c2.5-1.048,6.729-1.2,9-1.434,3.734-.377,7.5-.518,11.246-.742C33.819,1.175,42.554.233,51.314.038c2.621-.055,6.132-.292,8.229,1.643C61.93,3.885,62.4,9.351,63.12,12.3a71.837,71.837,0,0,1,2.03,9.733,18.527,18.527,0,0,1,.189,3.276,2.051,2.051,0,0,1,1.633,2.362c-.2,2.146-3.176,2.438-4.916,2.777-5.782,1.129-11.964.872-17.826,1.038C34.723,31.75,24.707,33,14.992,33,12.173,33,9.378,32.894,6.629,32.629Zm1.22-6.1c.269,0,.534,0,.788,0q9.254-.162,18.5-.532c6.287-.241,12.574-.51,18.866-.582,2.192-.025,4.412.043,6.639.112,2.854.088,5.719.176,8.549.067-1.083-2.835-.919-7.3-1.5-10.233-.573-2.915-.791-6.371-1.963-9.109-1.319-3.08-2.466-2.367-5.9-2.134-3.532.239-7.06.577-10.588.867-7.756.638-15.519,1.042-23.28,1.582-4.026.281-7.878,1.429-11.816,1.88-.059,1.406-.257,2.824-.235,3.849.067,3.025.365,6.028.627,9.041.106,1.225.612,3.339.688,5.193H7.85Z" transform="translate(135.777 150.342)" fill="#89c5cc"/>
      </g>
      <g id="Checkmark_2" data-name="Checkmark!" transform="translate(666.669 505.081)" opacity="0.5">
        <path id="Fill_292-2" data-name="Fill 292" d="M28,46.27h0a20.607,20.607,0,0,1-5.823-.857,24.135,24.135,0,0,1-5.727-2.567,28.392,28.392,0,0,1-9.959-10.38A24.148,24.148,0,0,1,3.4,18.5a3.322,3.322,0,0,1-1.705.62A1.406,1.406,0,0,1,.43,18.365a5.5,5.5,0,0,1,.142-4.548A34.525,34.525,0,0,1,4.306,8.667c.242-.294.491-.6.73-.891a20.79,20.79,0,0,1,7.1-5.842A20.633,20.633,0,0,1,21.2,0l.366,0A38.159,38.159,0,0,1,36.068,2.831a26.646,26.646,0,0,1,6.384,3.75,19.278,19.278,0,0,1,7.168,12.464,23.392,23.392,0,0,1-.09,7.408,24.874,24.874,0,0,1-6.546,13.134A22.687,22.687,0,0,1,35.889,44.6,19.454,19.454,0,0,1,28,46.27ZM21.336,5.711a14.454,14.454,0,0,0-5.4.894,9.651,9.651,0,0,0-4.383,3.472,17.526,17.526,0,0,0-2.727,6.056,18.333,18.333,0,0,0-.357,6.638A20.1,20.1,0,0,0,10.59,29.2a26.475,26.475,0,0,0,4.24,5.953,22.988,22.988,0,0,0,5.719,4.462,15.591,15.591,0,0,0,6.557,1.961c.268.015.539.022.806.022A16.061,16.061,0,0,0,40.04,35.662a20.948,20.948,0,0,0,3.613-5.994A19.073,19.073,0,0,0,45,22.932a14.133,14.133,0,0,0-6.059-12.09C35.7,8.474,31.122,6.805,25.686,6.016A36.427,36.427,0,0,0,21.336,5.711Z" transform="translate(0 3.295)" fill="#88b7bd"/>
        <path id="Fill_294-2" data-name="Fill 294" d="M31.072.669A61.153,61.153,0,0,0,19.313,12.452c-3.263,4.212-5.42,9.471-9.34,13.143-1.979-2.156-4.3-7.979-8.247-5.669C-1.551,21.843.559,25.14,2.155,27.3c4.121,5.589,8.7,7.839,13.982,2.316,4.8-5.015,7.526-11.705,12.014-17.009,1.969-2.327,5.01-4.637,6.578-7.206,1.421-2.329-.336-7.177-3.656-4.737" transform="translate(10.74)" fill="#88b7bd"/>
      </g>
      <g id="Checkmark_3" data-name="Checkmark!" transform="translate(619.669 541.081)" opacity="0.5">
        <path id="Fill_292-3" data-name="Fill 292" d="M28,46.27h0a20.607,20.607,0,0,1-5.823-.857,24.135,24.135,0,0,1-5.727-2.567,28.392,28.392,0,0,1-9.959-10.38A24.148,24.148,0,0,1,3.4,18.5a3.322,3.322,0,0,1-1.705.62A1.406,1.406,0,0,1,.43,18.365a5.5,5.5,0,0,1,.142-4.548A34.525,34.525,0,0,1,4.306,8.667c.242-.294.491-.6.73-.891a20.79,20.79,0,0,1,7.1-5.842A20.633,20.633,0,0,1,21.2,0l.366,0A38.159,38.159,0,0,1,36.068,2.831a26.646,26.646,0,0,1,6.384,3.75,19.278,19.278,0,0,1,7.168,12.464,23.392,23.392,0,0,1-.09,7.408,24.874,24.874,0,0,1-6.546,13.134A22.687,22.687,0,0,1,35.889,44.6,19.454,19.454,0,0,1,28,46.27ZM21.336,5.711a14.454,14.454,0,0,0-5.4.894,9.651,9.651,0,0,0-4.383,3.472,17.526,17.526,0,0,0-2.727,6.056,18.333,18.333,0,0,0-.357,6.638A20.1,20.1,0,0,0,10.59,29.2a26.475,26.475,0,0,0,4.24,5.953,22.988,22.988,0,0,0,5.719,4.462,15.591,15.591,0,0,0,6.557,1.961c.268.015.539.022.806.022A16.061,16.061,0,0,0,40.04,35.662a20.948,20.948,0,0,0,3.613-5.994A19.073,19.073,0,0,0,45,22.932a14.133,14.133,0,0,0-6.059-12.09C35.7,8.474,31.122,6.805,25.686,6.016A36.427,36.427,0,0,0,21.336,5.711Z" transform="translate(0 3.295)" fill="#88b7bd"/>
        <path id="Fill_294-3" data-name="Fill 294" d="M31.072.669A61.153,61.153,0,0,0,19.313,12.452c-3.263,4.212-5.42,9.471-9.34,13.143-1.979-2.156-4.3-7.979-8.247-5.669C-1.551,21.843.559,25.14,2.155,27.3c4.121,5.589,8.7,7.839,13.982,2.316,4.8-5.015,7.526-11.705,12.014-17.009,1.969-2.327,5.01-4.637,6.578-7.206,1.421-2.329-.336-7.177-3.656-4.737" transform="translate(10.74)" fill="#88b7bd"/>
      </g>
    </g>
    <g id="A_Human_Sitting" data-name="A Human/Sitting" transform="translate(582 126)">
      <g id="Head_Front" data-name="Head/Front" transform="translate(153 -5)">
        <g id="Head" transform="translate(52.585 31)">
          <path id="Head-2" data-name="Head" d="M0,0,8.262,38.51C3.655,43.919.536,50.548,1.057,57.974c1.5,21.4,31.292,16.692,37.086,5.891s5.107-38.2-2.382-40.129c-2.987-.77-9.349,1.116-15.825,5.019L24,0Z" transform="translate(42 73) rotate(180)" fill="#ebceb4"/>
        </g>
        <path id="Hair" d="M8.193,0C4.214,2.388,1.184,7.217.284,12.6a20.834,20.834,0,0,0,.468,8.973,23.034,23.034,0,0,0,2.191,5.28C6.62,41.985,21.83,40.627,33.211,39.267c5.542-.662,10.177-1.325,12.129-.083,1.3-8.165-2.9-14.749-17.675-13.473-3.213-1.8-5.531-5.177-8.358-9.714A6,6,0,0,1,12.92,6.119C11.38,3.945,9.834,1.943,8.195,0h0Z" transform="translate(94.451 65.412) rotate(180)" fill="#191847"/>
      </g>
      <g id="Bottom_Skinny_Jeans_1" data-name="Bottom/Skinny Jeans 1" transform="translate(0 187)">
        <g id="Seat" transform="translate(130.813 42)">
          <g id="Seat-2" data-name="Seat" transform="translate(55)">
            <path id="Seat_Stuff" data-name="Seat Stuff" d="M27.623,0h77.255L115,103.73H0Z" fill="#c5cfd6"/>
            <path id="Seat_Stuff-2" data-name="Seat Stuff" d="M27.623,0h23.76L65.6,103.73H0Z" fill="rgba(0,0,0,0.1)"/>
          </g>
        </g>
        <path id="LegLower" d="M0,0,5.118,101.51c3.688,17.553,34.907,9.406,34.894,0C39.982,80.155,27.154,6.383,27.145.021Z" transform="translate(174.913 113.125) rotate(160)" fill="#1e4043"/>
        <g id="Accessories_Shoe_Flat_Simple" data-name="Accessories/Shoe/Flat Simple" transform="translate(150 88)">
          <path id="Shoe" d="M43.83,13.125,43.145,2.082a.729.729,0,0,0-.661-.681L27.186,0,.951,9.739a1.458,1.458,0,0,0-.9,1.765l1.08,3.808H42.383Z" transform="matrix(0.914, -0.407, 0.407, 0.914, -18.219, 41.576)" fill="#191847"/>
          <path id="Shoe-2" data-name="Shoe" d="M43.83,13.125,43.145,2.082a.729.729,0,0,0-.661-.681L27.186,0,.951,9.739a1.458,1.458,0,0,0-.9,1.765l1.08,3.808H42.383Z" transform="translate(-73 40)" fill="#191847"/>
        </g>
        <path id="Leg_and_Butt" data-name="Leg and Butt" d="M0,36.433C0,63,12.617,124.97,12.625,130.82l27.146.021S33.81,47.9,35.544,47s71.051,6.921,91.84,6.921c29.979,0,42.38-18.9,43.386-53.925H111.384C99.292,1.294,36.222,14.015,12.8,18.388,2.77,20.261,0,29.115,0,36.433Z" transform="translate(83.042)" fill="#1e4043"/>
      </g>
      <g id="Body_Long_Sleeve_1" data-name="Body/Long Sleeve 1" transform="translate(22 82)">
        <path id="Skin" d="M31.587,13.5,0,26.6l7.052,17.43L38.949,20.6a85.86,85.86,0,0,0,21.685-8.714C62,10.64,63.662,8.11,57.975,8.548s-11.687.642-12.471-1.3S48.16,2.99,46.574.373A.754.754,0,0,0,45.882,0Q43.078,0,31.587,13.5ZM10.4,110.854l37.9,11.379a85.861,85.861,0,0,0,20.009,12.073c1.823.343,4.714-2.5,0-4.61s-6.137-2.315-5.061-4.108,6.549-6.991,5.8-9.441-5.744-3.252-19.5-4.071L20.078,94.732Z" transform="translate(150.804 119.195) rotate(180)" fill="#ebceb4"/>
        <path id="Coat_Back" data-name="Coat Back" d="M13.491,78.364C38.653,51.574,69.342,34.092,111.2,18.586L101.9,0C58.717,4.072,35.63,7.324,17.531,34.155,12.988,40.889,4.866,64.06,0,76.093Z" transform="matrix(-0.966, 0.259, -0.259, -0.966, 226.612, 78.289)" fill="#44585a"/>
        <path id="Shirt" d="M70.222,114,0,106.823S19.384,34.208,19.951,4.472c.019-1.011,1.886-2.792,2.712-2.558C31.722,4.472,42.05,0,42.05,0,60.3,29.358,66.617,65.5,70.222,114Z" transform="translate(171.638 0)" fill="#ededed"/>
        <path id="Clothes_Jacket" data-name="Clothes Jacket" d="M1.421,0H42.478C76.459,0,67.857,69.174,44.8,138.606H32.867a5.417,5.417,0,0,1-4.941-3.377C12.038,104.582-5.1,43.822,1.421,0Z" transform="translate(251.93 138.606) rotate(180)" fill="#44585a"/>
      </g>
      <path id="Shade_Lapel" data-name="Shade Lapel" d="M13.221,0,16.9,11.3l-7.4,8.474,6.69,6.659L0,54.148,19.792,26.492l-6.571-6.715,6.571-7.489Z" transform="translate(212.569 93)" fill="rgba(0,0,0,0.31)"/>
      <path id="Buttons" d="M4.275,2.85A2.85,2.85,0,1,0,7.125,0,2.85,2.85,0,0,0,4.275,2.85ZM3.563,19.237a2.85,2.85,0,1,0,2.85-2.85A2.849,2.849,0,0,0,3.563,19.237ZM0,35.624a2.85,2.85,0,1,0,2.85-2.85A2.85,2.85,0,0,0,0,35.624Z" transform="translate(225.473 196.858) rotate(173)" fill="rgba(0,0,0,0.4)"/>
    </g>
    <g transform="matrix(1, 0, 0, 1, 0, 0)" filter="url(#Clothes_Back)">
      <path id="Clothes_Back-2" data-name="Clothes Back" d="M6.31,14.02c21.9-.042,49.57,13.614,91.974,0l9.758,6.095C71.6,43.554,8.378,28.559,8.378,28.559S9.885,39.917,6.31,14.02Z" transform="translate(725.1 202)" fill="#44585a"/>
    </g>
    <path id="Clothes_Back-3" data-name="Clothes Back" d="M.9,8.042c21.9-.042,57.465,7.2,99.869-6.409l7.274,18.481C71.6,43.554,2.491,32.145,2.491,32.145S4.474,33.939.9,8.042Z" transform="translate(725.101 202)" fill="#44585a"/>
  </g>
</svg>
